<svg xmlns="http://www.w3.org/2000/svg" xmlns:xlink="http://www.w3.org/1999/xlink" id="eba95001-465a-4263-bb20-5cc6e1fb8cbe" data-name="Layer 1" width="31.0008" height="31.0006" viewBox="0 0 31.0008 31.0006"><defs><mask id="ff3c9ae9-9128-4c72-8582-3386a6d4d111" x="7.0002" y="0" width="18" height="22" maskUnits="userSpaceOnUse"><g transform="translate(-0.0001 0.0006)"><g id="a822f4f5-e481-4567-837c-7cc55185fbef" data-name="mask-2"><polygon id="ba3894a0-ff1f-4aa2-889e-ffd4d482228b" data-name="path-1" points="7 0 25 0 25 21.999 7 21.999 7 0" style="fill:#fff;fill-rule:evenodd"></polygon></g></g></mask><mask id="ebe90446-a8c1-4dce-bb54-caaa9af83cad" x="0" y="21.0009" width="31.0008" height="9.9997" maskUnits="userSpaceOnUse"><g transform="translate(-0.0001 0.0006)"><g id="be93a094-5d3b-4357-90f3-c66b184ab972" data-name="mask-4"><polygon id="a1f5ff08-6449-45eb-8ebc-19e778f161ae" data-name="path-3" points="0 21 31 21 31 31 0 31 0 21" style="fill:#fff;fill-rule:evenodd"></polygon></g></g></mask></defs><g id="a8e4d503-3f54-40be-b341-7a506033bc9f" data-name="Landing-Chosen-Page"><g id="e61c498c-bac7-4130-8469-9eeffe2e6a1f" data-name="Moving-Company-Landing-Page-Design"><g id="b5aee114-c68a-465b-9233-7aa662d7f57e" data-name="Group-13"><g id="a6ba088a-4be1-4c6c-89bd-3c99c9387526" data-name="Group-3"><g style="mask:url(#ff3c9ae9-9128-4c72-8582-3386a6d4d111)"><path id="ffd37af3-8236-4b8a-bc72-2675b0e9f892" data-name="Fill-1" d="M9.3055,14.1272a.6.6,0,0,1,.225.0414.6523.6523,0,0,1,.4025.43c.8987,3.6533,3.3377,6.1069,6.0673,6.1069s5.1685-2.4536,6.0672-6.1069a.641.641,0,0,1,.9643-.3921c.2032.0362.6827-.6561.6827-1.9127a3.961,3.961,0,0,0-.1838-1.2307.6427.6427,0,0,1-.0167-.3417,7.7147,7.7147,0,1,0-15.0275,0,.6417.6417,0,0,1-.0167.3417,3.961,3.961,0,0,0-.1838,1.2307c0,1.2527.4834,1.9411.6428,1.9411a.7253.7253,0,0,1,.3767-.1074M16,21.9994c-3.1668,0-5.9786-2.574-7.1473-6.4719C7.791,15.4654,7,14.0962,7,12.2935A5.4308,5.4308,0,0,1,7.1957,10.83,8.7771,8.7771,0,0,1,7,9.0582a9,9,0,1,1,18,0,8.77,8.77,0,0,1-.1955,1.7716A5.4307,5.4307,0,0,1,25,12.2935c0,1.8027-.7908,3.1719-1.8528,3.234-1.1687,3.8979-3.98,6.4719-7.1472,6.4719" transform="translate(-0.0001 0.0006)" style="fill-rule:evenodd"></path></g></g><path id="ae680a2e-bfa7-4496-adfe-7c063f043408" data-name="Fill-4" d="M22.5869,12a.6587.6587,0,0,1-.602-.396,9.9212,9.9212,0,0,1-.6666-2.2907,11.9526,11.9526,0,0,1-7.04-2.9706,2.671,2.671,0,0,1-.4413.58A4.9986,4.9986,0,0,1,10.2446,8a10.1559,10.1559,0,0,0-.1738,3.2853.6739.6739,0,0,1-.21.5374.6516.6516,0,0,1-.5467.1693,13.17,13.17,0,0,0-1.6559-.1373.6667.6667,0,0,1,0-1.3334c.357,0,.7364.0267,1.0565.0574-.0382-1.2067.0224-2.9307.6126-3.572a1.1626,1.1626,0,0,1,.9261-.34,3.8931,3.8931,0,0,0,2.6544-.6894,1.7617,1.7617,0,0,0,.4572-1.3106.6587.6587,0,1,1,1.3173,0C14.7592,5.336,18.0618,8,21.9282,8a.663.663,0,0,1,.6587.6667,6.4047,6.4047,0,0,0,.4321,1.9626l1.2686-.1053a.6669.6669,0,0,1,.108,1.3293l-1.7547.1454C22.6225,12,22.6054,12,22.5869,12" transform="translate(-0.0001 0.0006)" style="fill-rule:evenodd"></path><path id="b29ec203-d834-4c87-9b9c-d5aa1d03344e" data-name="Fill-6" d="M13.25,13h-1.5c-.414,0-.75-.224-.75-.5s.336-.5.75-.5h1.5c.414,0,.75.224.75.5s-.336.5-.75.5" transform="translate(-0.0001 0.0006)" style="fill-rule:evenodd"></path><path id="b07b94c7-1212-4269-b3ee-43a2e6c548d3" data-name="Fill-8" d="M19.25,13h-1.5c-.414,0-.75-.224-.75-.5s.336-.5.75-.5h1.5c.414,0,.75.224.75.5s-.336.5-.75.5" transform="translate(-0.0001 0.0006)" style="fill-rule:evenodd"></path><g id="e4bc75ba-3523-4d4f-8b55-afe8b4fa7d6d" data-name="Group-12"><g style="mask:url(#ebe90446-a8c1-4dce-bb54-caaa9af83cad)"><path id="f9cfbce4-a901-4312-8eca-91b41d1dd906" data-name="Fill-10" d="M1.4737,29.75H12.5846L9.3632,22.4813,3.29,25.42a1.8838,1.8838,0,0,0-1.0126,1.2225Zm13.1336,0h1.7864l-.8254-1.595a.6113.6113,0,0,1,.0737-.67,5.1046,5.1046,0,0,0,1.1495-2.11c0-.5638-.9028-.625-1.2916-.625s-1.2917.0612-1.2917.625a5.1935,5.1935,0,0,0,1.1509,2.11.6087.6087,0,0,1,.0736.67Zm3.8092,0H29.5274l-.8034-3.1075A1.8824,1.8824,0,0,0,27.71,25.42l-6.0734-2.9387ZM30.354,31H.6457a.6549.6549,0,0,1-.5089-.24.6119.6119,0,0,1-.1176-.5375l1.0037-3.8838a3.1508,3.1508,0,0,1,1.69-2.0375l6.6869-3.235a.6691.6691,0,0,1,.51-.0287.6363.6363,0,0,1,.372.3412L13.6089,28.89l.4882-.9463a5.2438,5.2438,0,0,1-1.1806-2.5687c0-1.1562.9907-1.875,2.5834-1.875s2.5833.7188,2.5833,1.875a5.2438,5.2438,0,0,1-1.1806,2.5687l.49.9463,3.326-7.5113a.6427.6427,0,0,1,.3733-.3412.6684.6684,0,0,1,.51.0287l6.687,3.235a3.1458,3.1458,0,0,1,1.6882,2.0375l1.0049,3.8838a.6113.6113,0,0,1-.1176.5375.6555.6555,0,0,1-.51.24Z" transform="translate(-0.0001 0.0006)" style="fill-rule:evenodd"></path></g></g></g></g></g></svg>