<svg xmlns="http://www.w3.org/2000/svg" id="effe7aac-5cf7-4ffb-b1c2-32c26e6edfc8" data-name="Layer 1" width="22.32" height="29.76" viewBox="0 0 22.32 29.76"><path d="M11.16,18.6a7.44,7.44,0,1,0-7.44-7.44A7.4474,7.4474,0,0,0,11.16,18.6Zm0-13.64a6.2,6.2,0,1,1-6.2,6.2A6.207,6.207,0,0,1,11.16,4.96Z" style="fill-rule:evenodd"></path><path d="M18.697,19.3663a11.16,11.16,0,1,0-15.074,0L.04,28.9218a.62.62,0,0,0,.8581.7725l4.6375-2.3188,3.4212,2.28A.629.629,0,0,0,9.49,29.73a.6191.6191,0,0,0,.3906-.372l1.3543-3.6114,1.1964,3.5891a.6206.6206,0,0,0,.9325.32l3.4212-2.28,4.6375,2.3188A.6182.6182,0,0,0,21.7,29.76a.6189.6189,0,0,0,.58-.8382ZM1.24,11.16a9.92,9.92,0,1,1,9.92,9.92A9.9316,9.9316,0,0,1,1.24,11.16Zm9.34,12.8017L8.9937,28.19l-3.07-2.046a.6166.6166,0,0,0-.6213-.0385L1.7546,27.8789l2.8817-7.6833A11.0821,11.0821,0,0,0,10.074,22.265l.5448,1.6342A.5741.5741,0,0,0,10.58,23.9617Zm6.4381,2.144a.616.616,0,0,0-.6213.0385l-3.0442,2.03L11.397,22.308a11.0832,11.0832,0,0,0,6.2867-2.1124l2.8817,7.6833Z" style="fill-rule:evenodd"></path></svg>