<svg xmlns="http://www.w3.org/2000/svg" id="b148873d-7488-4fef-9428-bdee4ffe44cb" data-name="Layer 1" width="29" height="33" viewBox="0 0 29 33"><path d="M16.5,4.1545V1h.8c.3864,0,.7-.224.7-.5s-.3136-.5-.7-.5H11.7c-.3864,0-.7.224-.7.5s.3136.5.7.5h.8V4.1545a14.5,14.5,0,1,0,4,0ZM13.8333,1.5h1.3334V4.0338C14.9441,4.0236,14.725,4,14.5,4s-.4441.0236-.6667.0338ZM14.5,31.619A13.1107,13.1107,0,0,1,12.5525,5.5419h3.895A13.1107,13.1107,0,0,1,14.5,31.619Z" style="fill-rule:evenodd"></path><path d="M16.5,14.8879a5.262,5.262,0,0,0-.5533-1.9319,7.7585,7.7585,0,0,1-.78-3.0473.6683.6683,0,0,0-1.3334,0,7.7585,7.7585,0,0,1-.78,3.0473A5.262,5.262,0,0,0,12.5,14.8879a3.6705,3.6705,0,0,0,1.068,2.2407c.02.0239.0424.0516.0642.0778A1.9967,1.9967,0,0,0,12.5,19a1.9566,1.9566,0,0,0,.02.1994,6.1334,6.1334,0,0,0-3.4693,1.8995,5.99,5.99,0,0,0-1.0824,1.87,8.878,8.878,0,0,1-1.7708,2.8827.6722.6722,0,1,0,.9507.9506,8.8722,8.8722,0,0,1,2.8826-1.7694,6.0117,6.0117,0,0,0,1.8716-1.0824,6.3234,6.3234,0,0,0,1.8112-3.1126,1.9957,1.9957,0,0,0,1.6541-3.6316c.0218-.0262.0441-.0539.0642-.0778A3.6705,3.6705,0,0,0,16.5,14.8879Zm-2.204-1.48c.0653-.1593.1347-.3249.204-.4979.0693.173.1387.3386.204.4979a4.6007,4.6007,0,0,1,.4627,1.48,2.3549,2.3549,0,0,1-.6667,1.33,2.3549,2.3549,0,0,1-.6667-1.33A4.6007,4.6007,0,0,1,14.296,13.4078ZM10.9519,23a5.2844,5.2844,0,0,1-1.4615.8013c-.1681.0753-.3442.1519-.5257.2339.0834-.1815.16-.3576.2353-.5257a5.2729,5.2729,0,0,1,.8013-1.46A5.0192,5.0192,0,0,1,12.3892,20.6,5.0714,5.0714,0,0,1,10.9519,23ZM14.5,19.6667A.6667.6667,0,1,1,15.1667,19,.6688.6688,0,0,1,14.5,19.6667Z" style="fill-rule:evenodd"></path><circle cx="25.5" cy="18.5" r="0.5"></circle><circle cx="3.5" cy="18.5" r="0.5"></circle><circle cx="14.5" cy="7.5" r="0.5"></circle></svg>