<svg xmlns="http://www.w3.org/2000/svg" id="a75b24a2-b11b-43df-afeb-78267503cc22" data-name="Layer 1" width="37.4398" height="32.7113" viewBox="0 0 37.4398 32.7113"><path d="M37.3581,25.3918A5.0972,5.0972,0,0,0,31.5268,22.71l-5.0541,1.2626c-.2242-1.9484-1.3769-3.0979-3.683-3.6751L9.2585,17.2906c.0415-.2962.0753-.58.0984-.8435a.78.78,0,0,0-.24-.6334c-1.3385-1.2667-6.683-1.677-8.2913-1.7722a.84.84,0,0,0-.58.2106A.78.78,0,0,0,0,14.82V28.86a.78.78,0,0,0,.78.78H5.46a.7828.7828,0,0,0,.7426-.5382c.02-.0628.127-.39.2865-.8972L17.6647,31.93a8.963,8.963,0,0,0,3.2323.7816c1.5834,0,3.4351-.691,7.5067-2.3618l8.58-3.9a.7794.7794,0,0,0,.3744-1.0577ZM4.8906,28.08H1.56V15.6562a23.7411,23.7411,0,0,1,6.1963,1.106A82.0458,82.0458,0,0,1,4.8906,28.08Zm22.8938.8389c-6.5583,2.688-6.7892,2.6022-9.5971,1.5414L6.9479,26.7138c.6408-2.1234,1.534-5.2732,2.0455-7.8827l13.4375,2.986c1.7285.43,2.4243,1.1122,2.5179,2.5365l-1.4976.3744a3.9262,3.9262,0,0,1-1.71.0406l-6.7688-1.3541a.7911.7911,0,0,0-.9173.6131.7776.7776,0,0,0,.6131.9173l6.7673,1.3541a5.51,5.51,0,0,0,2.3946-.0578l2.0982-.5242.0024-.001,5.975-1.4926a3.55,3.55,0,0,1,3.6114,1.1793Z" style="fill-rule:evenodd"></path><path d="M28.86,20.28a5.46,5.46,0,1,0-5.46-5.46A5.466,5.466,0,0,0,28.86,20.28Zm0-9.36a3.9,3.9,0,1,1-3.9,3.9A3.9044,3.9044,0,0,1,28.86,10.92Z" style="fill-rule:evenodd"></path><path d="M28.86,17.16a.78.78,0,0,0,.78-.78V13.26a.78.78,0,0,0-1.56,0v3.12A.78.78,0,0,0,28.86,17.16Z" style="fill-rule:evenodd"></path><path d="M19.5,10.92a5.46,5.46,0,1,0-5.46-5.46A5.466,5.466,0,0,0,19.5,10.92Zm0-9.36a3.9,3.9,0,1,1-3.9,3.9A3.9044,3.9044,0,0,1,19.5,1.56Z" style="fill-rule:evenodd"></path><path d="M19.5,7.8a.78.78,0,0,0,.78-.78V3.9a.78.78,0,0,0-1.56,0V7.02A.78.78,0,0,0,19.5,7.8Z" style="fill-rule:evenodd"></path></svg>