<svg xmlns="http://www.w3.org/2000/svg" id="beaaebcb-7336-4eb2-a15d-00fe753e4e91" data-name="Layer 1" width="26" height="31.0004" viewBox="0 0 26 31.0004"><path d="M24.586,23.5357a.63.63,0,0,0-.0472-.108A2.89,2.89,0,0,0,26,21a3.2837,3.2837,0,0,0-3.5-3A3.2837,3.2837,0,0,0,19,21a2.89,2.89,0,0,0,1.4608,2.4274.6267.6267,0,0,0-.0468.1083l-1.4,6.6667a.65.65,0,0,0,.26.66.7266.7266,0,0,0,.7392.0667L22.5,29.7451l2.4864,1.184A.7417.7417,0,0,0,25.3,31a.7265.7265,0,0,0,.4256-.1374.65.65,0,0,0,.26-.66ZM22.5,19.2A1.97,1.97,0,0,1,24.6,21a1.97,1.97,0,0,1-2.1,1.8A1.97,1.97,0,0,1,20.4,21,1.97,1.97,0,0,1,22.5,19.2Zm.3136,9.2037a.7285.7285,0,0,0-.6272,0l-1.519.724,1.091-5.1987a3.9085,3.9085,0,0,0,1.4832,0l1.091,5.1987Z" transform="translate(0 0.0002)" style="fill-rule:evenodd"></path><path d="M17.25,26.727H1.2778V9H8.3571A.6432.6432,0,0,0,9,8.3569V1.2725H21.7222V15.9088a.6389.6389,0,0,0,1.2778,0V.6361A.6378.6378,0,0,0,22.3611,0H8.3055a.6449.6449,0,0,0-.4523.1857L.1866,7.8219A.64.64,0,0,0,0,8.2725V27.3634A.6379.6379,0,0,0,.6389,28H17.25a.6364.6364,0,1,0,0-1.2728ZM2.1029,7.7141,7.7143,2.1249V7.7141Z" transform="translate(0 0.0002)" style="fill-rule:evenodd"></path><path d="M3.6667,13C3.2986,13,3,13.224,3,13.5s.2986.5.6667.5h6.6666c.3681,0,.6667-.224.6667-.5s-.2986-.5-.6667-.5Z" transform="translate(0 0.0002)" style="fill-rule:evenodd"></path><path d="M17.3333,18H2.6667C2.2986,18,2,18.224,2,18.5s.2986.5.6667.5H17.3333c.3681,0,.6667-.224.6667-.5S17.7014,18,17.3333,18Z" transform="translate(0 0.0002)" style="fill-rule:evenodd"></path><path d="M8.3,24c.3864,0,.7-.224.7-.5s-.3136-.5-.7-.5H2.7c-.3864,0-.7.224-.7.5s.3136.5.7.5Z" transform="translate(0 0.0002)" style="fill-rule:evenodd"></path></svg>