<svg xmlns="http://www.w3.org/2000/svg" xmlns:xlink="http://www.w3.org/1999/xlink" id="f2274fa4-3be2-4865-bf4c-9c2d9eae6943" data-name="Layer 1" width="31.0012" height="31" viewBox="0 0 31.0012 31"><defs><mask id="b24cf671-1e83-46dc-9dd3-b9c7cefcec16" x="0" y="0" width="31.0012" height="31" maskUnits="userSpaceOnUse"><g transform="translate(0.0004)"><g id="ad1a0f62-b63f-4f35-a886-8db549ba6f1e" data-name="mask-2"><polygon id="a1d70c06-7fd2-4a81-9f2b-88acee675a3b" data-name="path-1" points="0 0 31 0 31 31 0 31 0 0" style="fill:#fff;fill-rule:evenodd"></polygon></g></g></mask><mask id="e144f013-ea98-4aab-b9f6-f9c5030e5857" x="17.0006" y="17" width="14" height="14" maskUnits="userSpaceOnUse"><g transform="translate(0.0004)"><g id="bb6f8043-dc72-49da-a7cc-81042746b194" data-name="mask-6"><polygon id="b891f55b-00d3-45f5-a38a-5cc38f00ec83" data-name="path-5" points="17 17 31 17 31 31 17 31 17 17" style="fill:#fff;fill-rule:evenodd"></polygon></g></g></mask></defs><g id="e674988c-8e29-43f0-8374-4baf6426ae0e" data-name="Landing-Chosen-Page"><g id="b0b5860b-9562-48d8-a5b4-6eabcb88e4f1" data-name="Moving-Company-Landing-Page-Design"><g id="b473c870-791f-4a83-bdfb-f0646889f539" data-name="Group-16"><path id="a902aeef-78bd-4caf-b893-01747965ad57" data-name="Fill-1" d="M15.375,26h-3.75A.6252.6252,0,0,1,11,25.375v-8.75A.6252.6252,0,0,1,11.625,16h8.75a.625.625,0,0,1,0,1.25H12.25v7.5h3.125a.625.625,0,0,1,0,1.25" transform="translate(0.0004)" style="fill-rule:evenodd"></path><g id="be8938ff-449e-4352-8215-ee83ff7b2a15" data-name="Group-5"><g style="mask:url(#b24cf671-1e83-46dc-9dd3-b9c7cefcec16)"><path id="af7f1d2e-60b5-4449-bdec-ed0eb2cb5003" data-name="Fill-3" d="M18.0835,31H4.521a.6461.6461,0,0,1-.6459-.6458V15.5H.646a.6466.6466,0,0,1-.4573-1.1031L13.9411.6445a2.2687,2.2687,0,0,1,3.1168,0l3.6089,3.609V.6458A.646.646,0,0,1,21.3126,0h5.1667a.646.646,0,0,1,.6458.6458v10.066l3.6864,3.6851A.6466.6466,0,0,1,30.3543,15.5H27.1251a.6458.6458,0,1,1-1.2916,0v-.6458a.6461.6461,0,0,1,.6458-.6459h2.316L26.022,11.4364a.65.65,0,0,1-.1885-.4572V1.2917h-3.875V5.8125a.6466.6466,0,0,1-1.1031.4573L16.146,1.5577a.9448.9448,0,0,0-1.2917,0L2.205,14.2083H4.521a.6461.6461,0,0,1,.6458.6459V29.7083H18.0835a.6459.6459,0,0,1,0,1.2917" transform="translate(0.0004)" style="fill-rule:evenodd"></path></g></g><path id="b9a8c95b-0788-413a-b53b-7c890fc59b0d" data-name="Fill-6" d="M15.375,26h-3.75A.6252.6252,0,0,1,11,25.375v-8.75A.6252.6252,0,0,1,11.625,16h8.75a.625.625,0,0,1,0,1.25H12.25v7.5h3.125a.625.625,0,0,1,0,1.25" transform="translate(0.0004)" style="fill-rule:evenodd"></path><g id="f446ffca-f0a3-4059-b641-6b3d142a7fe3" data-name="Group-10"><g style="mask:url(#b24cf671-1e83-46dc-9dd3-b9c7cefcec16)"><path id="b08292e1-c3d1-4d93-a390-88d23337e156" data-name="Fill-8" d="M18.0835,31H4.521a.6461.6461,0,0,1-.6459-.6458V15.5H.646a.6466.6466,0,0,1-.4573-1.1031L13.9411.6445a2.2687,2.2687,0,0,1,3.1168,0l3.6089,3.609V.6458A.646.646,0,0,1,21.3126,0h5.1667a.646.646,0,0,1,.6458.6458v10.066l3.6864,3.6851A.6466.6466,0,0,1,30.3543,15.5H27.1251a.6458.6458,0,1,1-1.2916,0v-.6458a.6461.6461,0,0,1,.6458-.6459h2.316L26.022,11.4364a.65.65,0,0,1-.1885-.4572V1.2917h-3.875V5.8125a.6466.6466,0,0,1-1.1031.4573L16.146,1.5577a.9448.9448,0,0,0-1.2917,0L2.205,14.2083H4.521a.6461.6461,0,0,1,.6458.6459V29.7083H18.0835a.6459.6459,0,0,1,0,1.2917" transform="translate(0.0004)" style="fill-rule:evenodd"></path></g></g><g id="f5fbcca5-1270-4573-9041-653cd9c86c7d" data-name="Group-13"><g style="mask:url(#e144f013-ea98-4aab-b9f6-f9c5030e5857)"><path id="ec114699-e42a-4994-9b42-122726b03a74" data-name="Fill-11" d="M24,18.2727A5.7273,5.7273,0,1,0,29.7274,24,5.7343,5.7343,0,0,0,24,18.2727M24,31a7,7,0,1,1,7-7,7.0083,7.0083,0,0,1-7,7" transform="translate(0.0004)" style="fill-rule:evenodd"></path></g></g><path id="ac942c26-e559-431b-8883-9217cc322be3" data-name="Fill-14" d="M25.4,26a.5856.5856,0,0,1-.4248-.1858l-1.8-1.9091A.6613.6613,0,0,1,23,23.4545V19.6364a.601.601,0,1,1,1.2,0v3.5547l1.6246,1.722a.6661.6661,0,0,1,0,.9011A.5856.5856,0,0,1,25.4,26" transform="translate(0.0004)" style="fill-rule:evenodd"></path></g></g></g></svg>