<svg xmlns="http://www.w3.org/2000/svg" id="b0e3f5bb-a285-425f-b268-715f9d81a649" data-name="Layer 1" width="24.752" height="21.32" viewBox="0 0 24.752 21.32"><g id="a910d657-f715-4242-b808-d15e7a153f44" data-name="Landing-Chosen-Page"><g id="b2767c40-9632-4349-803f-2c94a1abba88" data-name="Moving-Company-Landing-Page-Design"><g id="b585e35d-6907-4ad9-bc3f-31fb907baa17" data-name="Group-20"><g id="a522b325-3027-4bb4-8867-9c0e0a55cf4a" data-name="Group-17"><path id="bc321102-5138-4724-8703-b6ad542aee84" data-name="&#x201C;" d="M11.56,21.368V12.424H6.36V10.032A6.7692,6.7692,0,0,1,7.556,5.664a4.7687,4.7687,0,0,1,3.9-1.456h0V.048q-5.2,0-7.904,2.964T.848,11.8a44.1954,44.1954,0,0,0,1.248,9.568H11.56Zm14.04,0V12.424H20.4V10.032a6.7692,6.7692,0,0,1,1.196-4.368,4.7687,4.7687,0,0,1,3.9-1.456h0V.048q-5.2,0-7.904,2.964T14.888,11.8a44.1954,44.1954,0,0,0,1.248,9.568H25.6Z" transform="translate(-0.848 -0.048)"></path></g></g></g></g></svg>